<?xml version="1.0" encoding="UTF-8" standalone="no"?>
<svg
   xmlns:dc="http://purl.org/dc/elements/1.1/"
   xmlns:cc="http://creativecommons.org/ns#"
   xmlns:rdf="http://www.w3.org/1999/02/22-rdf-syntax-ns#"
   xmlns:svg="http://www.w3.org/2000/svg"
   xmlns="http://www.w3.org/2000/svg"
   xmlns:sodipodi="http://sodipodi.sourceforge.net/DTD/sodipodi-0.dtd"
   xmlns:inkscape="http://www.inkscape.org/namespaces/inkscape"
   viewBox="0 0 198.95874 200.00001"
   version="1.1"
   id="svg10"
   sodipodi:docname="geniac-logo.svg"
   width="198.95874"
   height="200"
   inkscape:version="0.92.3 (2405546, 2018-03-11)">
  <metadata
     id="metadata16">
    <rdf:RDF>
      <cc:Work
         rdf:about="">
        <dc:format>image/svg+xml</dc:format>
        <dc:type
           rdf:resource="http://purl.org/dc/dcmitype/StillImage" />
        <dc:title></dc:title>
      </cc:Work>
    </rdf:RDF>
  </metadata>
  <defs
     id="defs14" />
  <sodipodi:namedview
     pagecolor="#ffffff"
     bordercolor="#666666"
     borderopacity="1"
     objecttolerance="10"
     gridtolerance="10"
     guidetolerance="10"
     inkscape:pageopacity="0"
     inkscape:pageshadow="2"
     inkscape:window-width="1920"
     inkscape:window-height="1021"
     id="namedview12"
     showgrid="false"
     fit-margin-top="0"
     fit-margin-left="0"
     fit-margin-right="0"
     fit-margin-bottom="0"
     inkscape:zoom="0.30659049"
     inkscape:cx="231.31467"
     inkscape:cy="74.943578"
     inkscape:window-x="0"
     inkscape:window-y="0"
     inkscape:window-maximized="1"
     inkscape:current-layer="svg10" />
  <g
     id="g821"
     transform="scale(0.46424924)"
     style="stroke-width:2.1540153">
    <circle
       r="163.93782"
       cy="215.40157"
       cx="214.28012"
       id="path815"
       style="opacity:1;fill:#ffffff;fill-opacity:1;stroke:none;stroke-width:8.14116096;stroke-miterlimit:4;stroke-dasharray:8.14116067, 16.28232132;stroke-dashoffset:0;stroke-opacity:1" />
    <g
       style="fill:#b2b2b2;fill-opacity:1;stroke-width:5.12128401"
       transform="matrix(0.42060065,0,0,0.42060065,102.09539,100.93893)"
       id="g909">
      <path
         inkscape:connector-curvature="0"
         d="M 385.08203,23.980469 335.14648,120.2168 c 1.73962,0.82328 3.47351,1.67497 5.19532,2.56836 19.78704,9.88153 36.93702,23.92963 50.39648,40.96679 H 516.14453 C 492.38051,104.39851 447.66176,55.517808 390.25391,26.587891 c -1.71709,-0.890936 -3.44194,-1.755494 -5.17188,-2.607422 z M 272.1,107.7 c 38.8,-0.6 76.3,14 104.4,40.8 L 454.2,70.8 C 405,24.6 339.7,-0.8 272.1,0 169.2,0 75.1,58 28.9,150 l 90.4,70.1 C 140.8,155.6 201.1,107.7 272.1,107.7 Z M 119.3,324.3 c -11.4,-33.8 -11.4,-70.4 0,-104.2 V 150 H 28.9 c -38.6,76.9 -38.6,167.5 0,244.4 z m 152.8,220 c 73.4,0 135.3,-24.1 180.4,-65.7 l -87.7,-68 c -24.4,16.6 -55.9,26 -92.6,26 -71,0 -131.2,-47.9 -152.8,-112.3 H 28.9 v 70.1 c 46.2,91.9 140.3,149.9 243.2,149.9 z M 533.5,278.4 c 0,-18.5 -1.5,-37.1 -4.7,-55.3 H 272.1 v 104.8 h 147 c -6.1,33.8 -25.7,63.7 -54.4,82.7 v 68 h 87.7 c 51.5,-47.4 81.1,-117.4 81.1,-200.2 z"
         style="fill:#b2b2b2;fill-opacity:1;stroke-width:5.12128401"
         id="path8-5" />
    </g>
    <path
       inkscape:connector-curvature="0"
       id="path6000"
       d="m 238.33215,0.01802644 c -7.63394,-0.15902 -14.14063,0.72507 -16.01925,3.00967996 -1.41671,1.72278 -4.45389,9.6188996 -6.75057,17.5483596 -2.29682,7.92944 -6.06703,15.38849 -8.37985,16.57448 -2.31269,1.186 -10.7645,2.79954 -18.78011,3.58614 -15.99986,1.5701 -15.02494,2.15821 -29.20794,-17.66368 -9.0595,-12.66148 -15.12561,-13.5137396 -33.90134,-4.76026 -19.57078,9.12432 -20.62661,11.35011 -15.26993,32.14472 l 4.5146,17.53017 -7.151,7.47566 c -3.93379,4.11187 -10.874149,9.78069 -15.424632,12.59696 l -8.273623,5.12131 -15.400242,-6.91134 c -13.868137,-6.22366 -16.012738,-6.5632 -21.565461,-3.41623 -5.530819,3.13471 -22.813447,30.182824 -22.888011,35.821864 -0.01703,1.24136 6.172836,8.26469 13.75288,15.60665 7.580511,7.34196 13.783167,14.32546 13.783167,15.51865 0,5.3142 -10.404562,31.70773 -13.173309,33.41899 -1.690238,1.0446 -8.958049,2.63599 -16.149748,3.53455 C 1.6759422,189.3 0,191.47991 0,215.40126 c 0,23.92136 1.6759422,26.10129 22.047781,28.64657 7.191699,0.89856 14.45951,2.48692 16.149748,3.53153 4.291994,2.65268 13.513184,30.46056 11.844544,35.71871 -0.756181,2.38149 -5.301852,7.32315 -10.100094,10.98289 -4.798246,3.65972 -10.457529,9.30194 -12.578677,12.53933 -3.565633,5.44181 -3.394453,6.80029 2.293569,18.00043 7.001096,13.78528 17.414516,25.90966 22.220678,25.87354 1.78857,-0.014 9.283947,-2.833 16.656458,-6.26512 7.372671,-3.43214 14.76988,-6.24083 16.437902,-6.24083 1.667867,0 9.04286,5.38586 16.389431,11.9659 l 13.35537,11.96287 -4.60547,17.87908 c -5.4081,20.99414 -4.80462,22.31299 14.62664,31.99602 18.81663,9.3767 25.26768,8.5796 34.45655,-4.2627 14.183,-19.82188 13.20808,-19.23372 29.20794,-17.66364 8.01561,0.7866 16.46742,2.40015 18.78011,3.58612 2.31282,1.18601 6.08303,8.64505 8.37985,16.57452 2.29668,7.9294 5.33386,15.8255 6.75057,17.5483 5.00966,6.0923 42.9207,2.229 47.39632,-4.83 1.15539,-1.8225 2.13699,-10.0799 2.17832,-18.34934 0.0416,-8.26944 0.90501,-16.2976 1.91749,-17.83964 2.49472,-3.7993 26.97467,-15.98893 32.10828,-15.98893 2.26654,0 9.50749,4.51121 16.09212,10.02419 6.5845,5.51297 14.25261,10.02113 17.03863,10.02113 5.83945,0 29.08333,-17.58802 33.058,-25.01493 2.8172,-5.26418 -0.30747,-13.72046 -10.33984,-27.99427 -2.5711,-3.65837 -4.67517,-8.07181 -4.67517,-9.80572 0,-3.60963 14.81554,-27.73 18.71344,-30.46694 1.42335,-0.99949 10.17294,-1.11994 19.44443,-0.27003 11.87097,1.08825 17.98558,0.60862 20.66732,-1.61709 5.09866,-4.23145 14.33245,-34.6752 12.38153,-40.82181 -0.9183,-2.89375 -8.08721,-7.84763 -17.58471,-12.15401 -8.95388,-4.05988 -16.10522,-8.91886 -16.19825,-11.00415 -0.0916,-2.05361 -0.16681,-9.37077 -0.16681,-16.26198 0,-6.8912 0.0746,-14.21136 0.16681,-16.26501 0.0933,-2.08526 7.24437,-6.94123 16.19825,-11.00111 9.4975,-4.30637 16.66641,-9.26024 17.58471,-12.154 1.95092,-6.14663 -7.28287,-36.5904 -12.38153,-40.82183 -2.68174,-2.22572 -8.79635,-2.70534 -20.66732,-1.61709 -9.27149,0.84992 -18.02108,0.72949 -19.44443,-0.27002 -3.8979,-2.73692 -18.71344,-26.86034 -18.71344,-30.46997 0,-1.73393 2.10407,-6.144344 4.67517,-9.802704 10.03237,-14.2738 13.15704,-22.73008 10.33984,-27.99426 -3.97467,-7.42691 -27.21855,-25.01796 -33.058,-25.01796 -2.78602,0 -10.45413,4.51119 -17.03863,10.02416 -6.58463,5.51296 -13.82558,10.02418 -16.09212,10.02418 -5.13361,0 -29.61356,-12.18966 -32.10828,-15.98892 -1.01248,-1.54204 -1.87602,-9.57021 -1.91749,-17.83964 -0.0421,-8.26945 -1.02293,-16.5268596 -2.17832,-18.3493296 -2.79733,-4.41189 -18.65397,-7.57470996 -31.37707,-7.83972996 z M 218.1745,80.344926 c 8.96694,0.13639 17.92077,1.68349 29.66604,4.68744 27.28708,6.97881 46.09963,17.846434 65.27533,37.708994 18.70663,19.37649 29.54972,39.8821 35.20293,66.56793 4.60019,21.71481 4.60019,30.46914 0,52.18396 -5.65321,26.68577 -16.4963,47.18844 -35.20293,66.56488 -19.1757,19.8626 -37.98825,30.73319 -65.27533,37.71201 -23.87954,6.10747 -39.50376,6.07715 -63.15169,-0.11836 -25.02141,-6.55509 -44.8957,-17.71311 -61.62271,-34.5961 C 104.31401,292.12885 96.861348,280.62331 89.616834,259.4148 70.993478,204.89481 87.303846,147.8444 132.06799,110.93018 c 16.62742,-13.711704 33.24768,-21.614784 56.36778,-26.801924 11.7928,-2.64588 20.77184,-3.91975 29.73873,-3.78333 z"
       style="fill:#ff6500;fill-opacity:0.99607843;stroke-width:2.29761648" />
  </g>
</svg>
